<svg xmlns="http://www.w3.org/2000/svg" width="512" height="512" viewBox="0 0 32 32">
  <rect width="32" height="32" fill="#0D0D1A" rx="4"/>
  <!-- 달 외곽 -->
  <rect x="10" y="4" width="12" height="2" fill="#FFE566"/>
  <rect x="8" y="6" width="2" height="2" fill="#FFE566"/>
  <rect x="22" y="6" width="2" height="2" fill="#FFE566"/>
  <rect x="6" y="8" width="2" height="2" fill="#FFE566"/>
  <rect x="24" y="8" width="2" height="2" fill="#FFE566"/>
  <rect x="6" y="10" width="2" height="2" fill="#FFE566"/>
  <rect x="24" y="10" width="2" height="2" fill="#FFE566"/>
  <rect x="4" y="12" width="2" height="8" fill="#FFE566"/>
  <rect x="26" y="12" width="2" height="8" fill="#FFE566"/>
  <rect x="6" y="20" width="2" height="2" fill="#FFE566"/>
  <rect x="24" y="20" width="2" height="2" fill="#FFE566"/>
  <rect x="6" y="22" width="2" height="2" fill="#FFE566"/>
  <rect x="24" y="22" width="2" height="2" fill="#FFE566"/>
  <rect x="8" y="24" width="2" height="2" fill="#FFE566"/>
  <rect x="22" y="24" width="2" height="2" fill="#FFE566"/>
  <rect x="10" y="26" width="12" height="2" fill="#FFE566"/>
  <!-- 달 내부 -->
  <rect x="10" y="6" width="12" height="2" fill="#FFE566" opacity="0.85"/>
  <rect x="8" y="8" width="16" height="2" fill="#FFE566" opacity="0.85"/>
  <rect x="8" y="10" width="16" height="2" fill="#FFE566" opacity="0.85"/>
  <rect x="6" y="12" width="20" height="8" fill="#FFE566" opacity="0.85"/>
  <rect x="8" y="20" width="16" height="2" fill="#FFE566" opacity="0.85"/>
  <rect x="8" y="22" width="16" height="2" fill="#FFE566" opacity="0.85"/>
  <rect x="10" y="24" width="12" height="2" fill="#FFE566" opacity="0.85"/>
  <!-- 크레이터 -->
  <rect x="10" y="12" width="2" height="2" fill="#C8A8E9" opacity="0.4"/>
  <rect x="18" y="10" width="4" height="2" fill="#C8A8E9" opacity="0.3"/>
  <rect x="12" y="18" width="3" height="2" fill="#C8A8E9" opacity="0.35"/>
  <rect x="20" y="16" width="2" height="2" fill="#C8A8E9" opacity="0.3"/>
</svg>
