<svg xmlns="http://www.w3.org/2000/svg" width="192" height="192" viewBox="0 0 32 32">
  <rect width="32" height="32" fill="#0D0D1A"/>
  <!-- 초승달 - 왼쪽 볼록, 오른쪽 파임, 채워진 형태 -->
  <rect x="18" y="2" width="2" height="2" fill="#FFE566"/>
  <rect x="16" y="4" width="4" height="2" fill="#FFE566"/>
  <rect x="14" y="6" width="6" height="2" fill="#FFE566"/>
  <rect x="12" y="8" width="8" height="2" fill="#FFE566"/>
  <rect x="10" y="10" width="10" height="2" fill="#FFE566"/>
  <rect x="8" y="12" width="10" height="2" fill="#FFE566"/>
  <rect x="8" y="14" width="8" height="2" fill="#FFE566"/>
  <rect x="8" y="16" width="8" height="2" fill="#FFE566"/>
  <rect x="8" y="18" width="10" height="2" fill="#FFE566"/>
  <rect x="10" y="20" width="10" height="2" fill="#FFE566"/>
  <rect x="12" y="22" width="8" height="2" fill="#FFE566"/>
  <rect x="14" y="24" width="6" height="2" fill="#FFE566"/>
  <rect x="16" y="26" width="4" height="2" fill="#FFE566"/>
  <rect x="18" y="28" width="2" height="2" fill="#FFE566"/>
</svg>
